<svg xmlns="http://www.w3.org/2000/svg" viewBox="0 0 73.69 45.64"><title>gift</title><path d="M24.43,47.15l0-.24h0a1.35,1.35,0,0,1-.33-.18,10.24,10.24,0,0,1-1.76-.86l-.48-.15a34.08,34.08,0,0,1-3.53-1.33c-1.51-.67-3-1.44-4.43-2.23l-.45-.25c-.19-.11-.38-.24-.57-.34l-1.13-.65-1.69-1-.22-.13-.19-.08-.51-.22-1.42-.66c-.73-.34-1.43-.73-2.15-1.11S4.22,37,3.58,36.65H3.53a1.11,1.11,0,0,1-.32-.21l-.34-.2a.21.21,0,0,1-.11-.16.18.18,0,0,1-.11-.17v-.18l-.22-.12a.31.31,0,0,1-.13-.42.29.29,0,0,1,.1-.12l0-.09-.15-.55-.14-.61q-.09-.37-.15-.75c0-.18-.07-.36-.1-.54,0,0,0,0,0,0-.17-.38-.32-.78-.47-1.18,0,0,0,0,0-.06a0,0,0,0,1,.07,0c.11.3.23.61.36.91-.06-.33-.11-.67-.15-1-.1-.71-.15-1.43-.22-2.14-.08-.89-.14-1.8-.18-2.69,0-.39,0-.77,0-1.16s0-.58,0-.87,0-.37,0-.55a3.53,3.53,0,0,1,0-.46.37.37,0,0,1,.4-.36h.05l0-.29a.28.28,0,0,1,.27-.27.28.28,0,0,1,.18.06l.17-.23.15-.2c-.31.12-.64.25-.93.39s-.4.18-.59.29a.21.21,0,0,1-.29-.08.22.22,0,0,1,.09-.29l.6-.32c.38-.2.75-.43,1.12-.65.14-.08.31-.15.46-.22l1.11-.53.26-.11a12.15,12.15,0,0,1,1.23-.66c.5-.23,1-.46,1.5-.65L7.34,19l1.78-.82c1.74-.8,3.52-1.56,5.3-2.26l2.18-.87,1.07-.51L19,14l-.69.21c-2.73.84-5.43,1.73-8.11,2.71a.07.07,0,0,1,0-.13c1.59-.58,3.18-1.13,4.79-1.66s3-.94,4.52-1.33l.2-.09c.3-.12.61-.26.92-.36s.31-.09.46-.14a.48.48,0,0,1,.29,0,1.79,1.79,0,0,1,.17-.83A2.67,2.67,0,0,1,23,11.23a1.14,1.14,0,0,1,.41-.12l.11,0L24,11l.55-.09a6.51,6.51,0,0,1,.87-.07h.77a1.34,1.34,0,0,1,.35,0,1.44,1.44,0,0,1,.4.18c.24-.14.49-.29.74-.42l.44-.19a.36.36,0,0,1,.27,0l-.33-.5a1.26,1.26,0,0,1-.13-.26c-.06-.12-.11-.24-.16-.36h0A3.31,3.31,0,0,1,27.62,9c-.07-.19-.12-.37-.18-.56a.25.25,0,0,1,0-.12h0v0a3.2,3.2,0,0,1-.08-.6,1.93,1.93,0,0,1,0-.42,2.75,2.75,0,0,1,.3-.89l.09-.14A7.38,7.38,0,0,1,29.92,3.9L30,3.81c0-.1,0-.25.08-.3s.19,0,.31,0c.19-.13.37-.25.56-.36a4.73,4.73,0,0,1,1.91-.72,2.24,2.24,0,0,1,.73,0,2.41,2.41,0,0,1,1.56,1.12,1.62,1.62,0,0,1,.1.18,1.76,1.76,0,0,1,.54.55.93.93,0,0,1,0,.37,3.51,3.51,0,0,1,.48-.6A5.57,5.57,0,0,1,37,3.4l.33-.22a2,2,0,0,1,.25-.13l.45-.2a4.51,4.51,0,0,1,.77-.35,5.76,5.76,0,0,1,.59-.18,8.32,8.32,0,0,1-.53-.68,7.76,7.76,0,0,1,.63.65A4.54,4.54,0,0,1,40,2.2l-1.12-.55,0,0h0l1.2.58.53-.05a6.15,6.15,0,0,1,2.4.36,3.94,3.94,0,0,1,1.26.71,3.49,3.49,0,0,1,.66.67,4,4,0,0,1,.43.72,2.19,2.19,0,0,1,.12.33l.66.36L45.56,5a4,4,0,0,1,.2.88l.53-.15L45.77,6a4.46,4.46,0,0,1,0,.82,8.5,8.5,0,0,0,2.06-.6L47.48,6V6l0,0a3.17,3.17,0,0,0,.41.21c.36-.15.72-.31,1.06-.48s.63-.33.94-.5l.44-.22a.45.45,0,0,1,.61.21l0,.08.1-.06a1.07,1.07,0,0,1,.33-.11.27.27,0,0,1,0-.25c-.36-.12-.73-.24-1.09-.34l-.48-.14-.61-.17s0,0,0,0,0,0,0,0l.63.17c.33.09.65.19,1,.3l.59.19a.28.28,0,0,1,.38-.07c.19.12.38.24,1,.55.3.11.58.23.87.35s.8.32,1.18.49l.19.09a2.74,2.74,0,0,1,.46.15c.56.22,1.08.48,1.63.74l.83.42c.42.2.83.41,1.24.62.63.33,1.26.67,1.9,1,0,0,0,0,0,0l1.86,1,1.9.79c1,.41,2,.82,3,1.2l1.63.63c.64.25,1.3.48,2,.72l.94.33.54.19a.44.44,0,0,1,.3.53.3.3,0,0,1,.12.13,2.27,2.27,0,0,1,.06.25c0,.26.08.53.1.8s0,.62,0,.92v.18h0a.34.34,0,0,1,.16.32c0,.23,0,.47,0,.71l0,.37c.07.53.14,1.06.18,1.59S74,20.57,74,21c0,.2,0,.36-.12.51a1.19,1.19,0,0,1,.12.26c0,.08,0,.16.07.24a2.35,2.35,0,0,1,0,.37c0,.07,0,.13,0,.19l.12.08a.14.14,0,0,1-.11,0v.06c0,.24,0,.46,0,.7a6.23,6.23,0,0,1-.33,1.55,1.77,1.77,0,0,0,0,.23v.17a.84.84,0,0,1,0,.17.34.34,0,0,1-.09.12v.55a.38.38,0,0,1-.38.37h0c0,.29-.07.58-.1.87,0-.16,0-.32,0-.48l0-.39a.33.33,0,0,1-.24-.14,4.49,4.49,0,0,1-.41.46.42.42,0,0,1-.23.39c-.19.11-.4.21-.6.31-.46.24-.93.45-1.39.67-.62.29-1.25.57-1.87.83l-2,.83c-1.63.67-3.25,1.34-4.87,2-.4.17-.79.35-1.19.51-.68.28-1.36.61-2,.91s-1.54.73-2.29,1.09c-1.91,1-3.86,1.83-5.82,2.69v.13a.39.39,0,0,1-.38.39.4.4,0,0,1-.35-.2l-2.06.89c-2,.86-4,1.7-6.07,2.53l-2.27.92c-1.6.63-3.2,1.26-4.82,1.82l-.24.11c-1.11.51-2.25,1-3.39,1.41l-1.14.42-.84.29c-.19,0-.38.13-.57.17-.78.15-1.56.29-2.33.47a1.52,1.52,0,0,1-.22.22,1.19,1.19,0,0,1-.76.19l-.17,0a.11.11,0,0,1-.07,0,1.94,1.94,0,0,0,0,.24.1.1,0,0,1-.09.1A.09.09,0,0,1,24.43,47.15Zm.64-1.09a.17.17,0,0,1,.1-.12v0a1.13,1.13,0,0,0,0-.26,2.09,2.09,0,0,1-.08-.48.39.39,0,0,1,.75-.21,1.11,1.11,0,0,1,.14.47,2.46,2.46,0,0,1,0,.26c.59-.14,1.18-.35,1.75-.53l.64-.23c1.18-.38,2.32-.81,3.48-1.23l.48-.17c-.92-.6-1.81-1.28-2.69-1.94-.67-.5-1.33-1-2-1.54-1-.82-2-1.65-3-2.53.06.54.11,1.07.15,1.6.28.21.56.42.82.65.6.52,1.19,1,1.78,1.58a21.36,21.36,0,0,0,3,2.35.07.07,0,0,1,0,.1.08.08,0,0,1-.1,0,20.84,20.84,0,0,1-3.6-2.89c-.63-.57-1.25-1.13-1.92-1.66l0,.44c.06.83.12,1.68.13,2.52,0,.34,0,.68,0,1s0,.91,0,1.36a.38.38,0,0,1-.12.27l0,0v.57a.73.73,0,0,1-.07.46l0,0,0,0-.08.06h.07A1.27,1.27,0,0,0,25.07,46.06Zm0,0,0,0h0Zm-1-.56c0-.18-.06-.34-.09-.52s-.08-.44-.11-.66c-.07-.4-.13-.8-.19-1.2-.18-1.22-.29-2.48-.35-3.72s-.06-2.21,0-3.32v-.52c0-.17,0-.34,0-.51l-.2,0c-.29,2.48-.17,5-.22,7.47,0-.35,0-.71,0-1.06,0-.72,0-1.43,0-2.15a37.61,37.61,0,0,1,.2-4.24l-1,.21,0,0,0,0,1-.23c0-.2.05-.41.08-.61l0,0,0,0c0,.19-.05.39-.07.58l.19,0c0-.14,0-.28,0-.41s0-.13,0-.19a.33.33,0,0,1,0-.63l.26-.09h0c2.05-.71,3.85-1.36,5.64-2l2.1-.79-.21-.26a0,0,0,0,1,0-.07.06.06,0,0,1,.07,0l.22.29,1.15-.44c1.12-.41,2.25-.82,3.37-1.25,1.7-.63,3.39-1.28,5.61-2.14s4.53-1.93,6.82-2.86l-.43-.24c-.23-.15-.51-.28-.75-.41L46,22.85c-.76-.39-1.53-.75-2.31-1.12l-.86-.39-.4-.17c-.32-.18-.65-.38-1-.54l-.56-.28-.09,0-.52.21.35.25a.07.07,0,0,1,0,.1.06.06,0,0,1-.09,0c-.15-.08-.29-.19-.44-.29l-.87.35c-1.56.62-3.12,1.24-4.69,1.84Q29,24.91,23.42,26.9l-1,.34-2,.66-4.54,1.53h0c1.59.91,3.18,1.81,4.8,2.64,0,0,0-.11-.07-.17s-.16-.36-.23-.53a.05.05,0,0,1,0-.07.05.05,0,0,1,.07,0c.07.17.16.34.22.51s.08.21.12.31c.66.33,1.32.66,2,1a.41.41,0,0,1-.35.75c-.43-.19-.86-.4-1.28-.61a.23.23,0,0,1,0,.12.38.38,0,0,1-.11-.19c-1.88-.94-3.69-2-5.52-3l-.6-.34a.55.55,0,0,1-.47,0,.12.12,0,0,1-.07-.17.09.09,0,0,1,.06-.06c-1.34-.78-2.68-1.55-4-2.29L9.85,27c0,.68,0,1.37,0,2.06l1.05.44,3,1.25,0-.61a.37.37,0,0,1,.73,0c0,.29,0,.59,0,.88l.09,0,0,0h0l-.07,0c-.05,1.28-.1,2.57-.12,3.86,0,.47,0,.94,0,1.42s0,.69,0,1a27.7,27.7,0,0,0,0,3.41.18.18,0,0,1-.16.18.17.17,0,0,1-.17-.16c-.06-.83-.12-1.65-.2-2.48,0-.53-.12-1.07-.12-1.6,0-.86,0-1.73,0-2.59s0-1.71.07-2.57l0-.81-4-1.69c0,.56,0,1.12,0,1.68,0,1,0,2.08-.05,3.12,0,.67,0,1.34,0,2,0,.41,0,.83-.06,1.24s0,1,0,1.51a.15.15,0,0,1-.14.15.15.15,0,0,1-.15-.15c0-.52,0-1-.07-1.54,0-.33-.06-.66-.07-1,0-.74,0-1.48,0-2.22,0-1.46-.06-2.92-.08-4.38v-.74c-2-.86-4-1.75-5.89-2.77v0h0c1.91,1,3.88,1.91,5.87,2.76,0-.71,0-1.43,0-2.15-.67-.36-1.34-.71-2-1l-.32-.16s0,0,0,0a1.41,1.41,0,0,1-.29,0A2,2,0,0,1,5.3,25l-.63-.42-.51-.35-.6-.22c-.21-.06-.42-.15-.63-.23l-.26-.08s0,.05,0,.08c0,.25,0,.53,0,.78,0,.6,0,1.2,0,1.8,0,.79,0,1.58.05,2.37l0,1.47v.2l.06.67c.05.67.09,1.34.14,2v.1s0,.07,0,.11l0,.07,0,0,0,0v0L3,34.92a1.21,1.21,0,0,1,.05.18.78.78,0,0,0,0,.14c.7.38,1.41.75,2.11,1.14s1.5.87,2.25,1.29l1.26.74,1,.61.15.07.84.36.79.35.6.29.68.29,1.81.79.45.18,1.32.59q1.17.53,2.34,1.08l1.71.85a.33.33,0,0,1,.14.43.26.26,0,0,1,.29,0,1.06,1.06,0,0,0,.21.16l.39.26a.26.26,0,0,1,.3,0l1.13.68a10.32,10.32,0,0,1,1,.42h0l.08,0a.92.92,0,0,1,.23.09A2.46,2.46,0,0,1,24.09,45.51Zm-5.21-1.7c-.29-.15-.59-.29-.88-.42l-1.49-.69-.87-.38.65.35.89.43c.61.31,1.24.59,1.87.87l.09,0Zm8.8-.24-.33-.2-.09-.07-.1-.06L27,43.15l-.1-.07L26.77,43l0,0-.31-.25a3.49,3.49,0,0,1-.35-.32,5.46,5.46,0,0,0,.45.39l.2.17.05,0,.26.2.23.15.12.09a9.81,9.81,0,0,0,.95.52A3.38,3.38,0,0,1,27.68,43.57ZM36,42.17l1.7-.81L40.43,40l2.12-1c1.91-.93,3.89-1.72,5.89-2.46A11.28,11.28,0,0,1,47.28,36a27,27,0,0,1-4.76-3.63c-.56-.51-1.14-1-1.71-1.52-.37-.32-.76-.61-1.13-.92,0,0,0-.07,0-.09s.07,0,.09,0c.38.3.77.6,1.13.92.73.65,1.47,1.28,2.2,1.92a23.87,23.87,0,0,0,4.11,3,13.77,13.77,0,0,0,1.48.76l.82-.3c0-.21,0-.41,0-.61v-.24c-.64-.33-1.27-.71-1.87-1.1a27.93,27.93,0,0,1-2.71-2A38.78,38.78,0,0,1,41.52,29a0,0,0,0,1,0-.06,0,0,0,0,1,.07,0,31.75,31.75,0,0,0,3.82,3.41c.69.52,1.4,1,2.12,1.51.54.38,1.1.73,1.65,1.09l.31.2,0-1.67c-.16-.12-.32-.24-.47-.37-1.27-1-2.48-2.15-3.73-3.21-.51-.43-1-.85-1.54-1.26l-.64-.48v-.06h.06c.4.31.81.61,1.21.93l1.09.88c1.23,1,2.42,2,3.67,3l.35.28c0-.67,0-1.34-.05-2,0-.18,0-.36,0-.54A60.21,60.21,0,0,1,44.07,27L44,27l-.95.46h0l0,0,.34-.17-1.74.66c-2.1.8-4.22,1.58-6.33,2.37L32,31.45a22.62,22.62,0,0,0,3.31,3c.5.37,1,.72,1.52,1.08.81.57,1.65,1.13,2.49,1.64.64.39,1.28.78,1.91,1.18a.12.12,0,0,1,0,.16.11.11,0,0,1-.16,0c-.4-.22-.8-.47-1.19-.71s-1.08-.65-1.6-1-1.08-.7-1.61-1.07-1.28-1-1.91-1.48c-.37-.29-.73-.61-1.07-.92s-.68-.64-1-1-.55-.58-.82-.88l-.16.05-2.06,1a.06.06,0,0,1-.08,0s0-.06,0-.07l1-.5-1.23.43.75.78c.19.2.38.41.58.6.52.53,1,1.08,1.58,1.59s1.33,1.27,2,1.87c.3.27.62.52.92.78l.45.36.59.46c.57.45,1.17.9,1.78,1.3.22.14.44.3.67.43s.18.11.27.15l-.39-.18c-.26-.12-.52-.26-.77-.4a17,17,0,0,1-2-1.31,32.47,32.47,0,0,1-3.45-3.07c-.91-.9-1.78-1.83-2.66-2.76l-.51-.53-5,1.7c0,.2.06.4.1.6L26,34.31l-.21-.2a.08.08,0,0,1,0-.1.08.08,0,0,1,.11,0l.29.27L27.5,34c-.4.13-.8.26-1.2.37l-.09,0,.73.66c.7.64,1.4,1.3,2.11,1.93s1.31,1.16,2,1.69l1,.77c.28.21.58.43.88.62.49.33,1,.63,1.49.92.32.19.64.37,1,.53a.07.07,0,1,1-.06.12c-.37-.17-.73-.34-1.09-.54l-.35-.19-.52-.31c-.23-.14-.46-.3-.68-.45a34.31,34.31,0,0,1-3.14-2.49c-.4-.35-.78-.71-1.17-1.07s-1-1-1.56-1.43l-.55-.51-.23-.2-.69.18-1,.24c.12.74.22,1.47.31,2.21l0,.32c1,.92,2.07,1.79,3.14,2.65l.92.72.65.5,1.41,1c.55.39,1.1.78,1.63,1.18,0,0,0,0,0,.07C33.64,43.07,34.8,42.62,36,42.17Zm-9.19.77v0c.19.14.38.27.57.42A3.54,3.54,0,0,1,26.77,42.94Zm6.38-.62c-.17-.09-.34-.21-.51-.31-.57-.36-1.11-.76-1.65-1.17-.95-.72-1.88-1.48-2.76-2.28-.22-.19-.44-.38-.65-.58-1-.92-2-1.91-2.94-2.92l.05,0a45.31,45.31,0,0,0,4.09,3.87c1,.84,2,1.62,3.08,2.4l1.4,1.06A.35.35,0,0,1,33.15,42.32Zm2.81-2c-.4-.24-.83-.49-1.21-.75l-.92-.64c-.29-.21-.59-.43-.86-.66s-.73-.61-1.08-.92l-1-.89-.5-.48-1.52-1.5c-.35-.36-.69-.72-1-1.07a0,0,0,0,1,0-.07.06.06,0,0,1,.08,0c1.16,1.2,2.38,2.4,3.64,3.49.34.29.7.6,1.05.87l.77.59a23.81,23.81,0,0,0,3.28,2.16.12.12,0,0,1,0,.16.12.12,0,0,1-.16,0Zm9.91-3.39a4.09,4.09,0,0,1-.42-.2c-.33-.16-.66-.34-1-.53l-.39-.27a13.68,13.68,0,0,1-1.6-1.24c-.82-.7-1.6-1.45-2.37-2.22s-1.29-1.28-1.95-1.91l-.73-.67a0,0,0,0,1,0-.07s.05,0,.07,0c.18.18.38.35.57.53.57.53,1.13,1.06,1.68,1.6,1,.94,1.94,1.85,3,2.71A20.92,20.92,0,0,0,44.9,36.2c.35.23.72.47,1.09.68l.49.27A3.65,3.65,0,0,1,45.87,36.91Zm-4.18-.73c-.71-.5-1.4-1-2.07-1.57-.92-.74-1.82-1.51-2.69-2.31-.6-.56-1.18-1.13-1.76-1.71a.09.09,0,0,1,0-.1h.1c1.22,1.23,2.46,2.38,3.79,3.48a48,48,0,0,0,4.09,3,.08.08,0,1,1-.09.13A16.18,16.18,0,0,1,41.69,36.18Zm-22.18-.31,0,0,0,0a2.45,2.45,0,0,1,.79-.12A2.23,2.23,0,0,1,19.51,35.87Zm31-.1-.21-.1v.17Zm.62-.23.9-.33-.53-.3a14.43,14.43,0,0,1-1.22-.82c0,.52,0,1,0,1.55l.22.12Zm3.34-1.25.25-.1,1.39-.69c.77-.39,1.55-.75,2.33-1.11l.7-.31L61,31.26l.33-.16,1.92-1L62.93,30a12.63,12.63,0,0,1-1.22-.44,24.16,24.16,0,0,1-2.3-1.09c-1.2-.64-2.35-1.37-3.49-2.12v.44c0,.42,0,.84,0,1.26.79.52,1.58,1,2.39,1.49s1.56.94,2.36,1.38a.16.16,0,0,1,.07.22.16.16,0,0,1-.22.06l-.93-.51c-.72-.4-1.41-.82-2.09-1.27-.44-.28-.87-.57-1.3-.87l-.29-.2c0,.63-.07,1.26-.09,1.9l1.15.64.76.4c.17.09.33.2.49.3a0,0,0,1,1,0,.07A8.49,8.49,0,0,1,56.6,31l-.83-.46c0,.31,0,.62,0,.93s0,.77,0,1.15l.58.38a.13.13,0,1,1-.14.22c-.15-.09-.3-.18-.44-.28v.15a.44.44,0,0,1-.87,0c0-.22,0-.45,0-.67L54.31,32,52.15,30.7l-2-1.32c0,.49,0,1,0,1.47l.28.18c.92.57,1.85,1.15,2.74,1.76l1.26.89a.12.12,0,0,1,0,.16.11.11,0,0,1-.16,0c-.6-.42-1.21-.84-1.83-1.23-.36-.23-.71-.48-1.07-.7s-.83-.51-1.24-.77c0,.88.05,1.76.07,2.63l1.05.76.86.59C52.91,34.87,53.67,34.59,54.43,34.29Zm.5-4.28v0l-1-.65c-.38-.24-.75-.51-1.12-.76-.95-.64-1.87-1.33-2.78-2,0,.15,0,.31,0,.46,0,.73.07,1.45.09,2.18l.34.22c1.4.88,2.86,1.68,4.27,2.55l.11.07C54.86,31.36,54.9,30.68,54.93,30Zm-5.58-.88v-.27l-.42-.3c-.58-.43-1.14-.87-1.68-1.33s-.77-.7-1.13-1.06l-1.94.74a31.26,31.26,0,0,0,2.59,1.85c.86.55,1.74,1.08,2.61,1.62C49.37,30,49.37,29.54,49.35,29.13Zm14.56.63c.34-.17.67-.35,1-.51.55-.27,1.09-.55,1.65-.8s1.38-.62,2.09-.9h0s0,0-.08,0l-.52-.19c-.23-.1-.47-.19-.7-.3-.42-.19-.82-.41-1.22-.64A43.83,43.83,0,0,1,61,23l-1.12-.84a1.8,1.8,0,0,1-.38.16l0,0,0-.05c.09,0,.21-.11.32-.14L59,21.46a.09.09,0,0,1,.1-.14q1.74,1.32,3.54,2.55c.53.36,1.07.69,1.61,1,.36.24.74.47,1.11.69s.74.43,1.11.63l1,.53c.45.24.9.5,1.35.75.15-.06.3-.1.45-.15L70.28,27l.85-.31.31-.13.12-.06a.47.47,0,0,1,.17,0,.24.24,0,0,1,.2,0l.08,0,.06-.06.22-.24a4.59,4.59,0,0,0,.57-1V25c0-.38,0-.76,0-1.14L72,23.33l-1.66-.95L68,21.07c-.5-.3-1-.63-1.45-.95s-1.11-.8-1.64-1.23h0c-.61.22-1.21.45-1.82.69l.09.06c.54.41,1.1.81,1.67,1.18.73.48,1.49,1,2.25,1.39.47.27,1,.55,1.43.81l1.13.61,2.61,1.42a.16.16,0,0,1,.07.22.17.17,0,0,1-.22.06c-.85-.44-1.69-.89-2.53-1.34-.68-.36-1.35-.78-2-1.17s-1.35-.82-2-1.25c-.92-.61-1.83-1.24-2.7-1.91L61,20.37l-.26.1C62.35,21.76,64,23,65.64,24.15c.83.56,1.69,1.08,2.55,1.59.56.33,1.1.67,1.66,1a4,4,0,0,1-.76-.26l-.68-.31c-.41-.19-.8-.41-1.19-.64a38.69,38.69,0,0,1-3.91-2.81c-.91-.72-1.8-1.44-2.69-2.17l-1.45.56-3.5,1.37c0,.38.08.76.11,1.14l.1.07c.32-.13.65-.25,1-.35a9,9,0,0,1-.89.41l.57.4c1.49,1,3.05,1.85,4.63,2.72.69.37,1.38.74,2.07,1.13l.68.37a5.08,5.08,0,0,1,.59.35,2.18,2.18,0,0,1,.28.25c-.15.11-.58-.14-.73-.22l-2-1.12c-1.28-.69-2.56-1.41-3.79-2.18-.32-.19-.63-.39-.94-.59s-.82-.55-1.22-.83l-.27-.19c.07.77.1,1.53.12,2.3.46.3.94.59,1.41.86.65.38,1.3.77,2,1.11.19.1.38.2.58.29l1.17.54a4,4,0,0,0,.43.19c.28.12.57.25.86.35s.54.18.8.29l.4.18ZM55,27.8l-.54-.39-1.6-1.2c-.3-.23-.61-.47-.9-.71l-.88-.71-.45-.38-.66.26q0,.69,0,1.38l.23-.09a5.26,5.26,0,0,1,.87-.3,5.68,5.68,0,0,1-.94.43l-.16.06a1.93,1.93,0,0,0,0,.24l.05,0c1.22.94,2.5,1.83,3.79,2.67l1.09.68ZM16.37,28.91c1.69-.64,3.38-1.3,5.05-2l1.33-.54c.66-.27,1.35-.51,2-.75l2.69-1c2.27-.84,4.53-1.71,6.79-2.57,1.61-.62,3.2-1.26,4.81-1.9l.2-.08-.41-.24,0,0c-.77.06-1.55.09-2.33.08h-.66l-.36.19-.49.23-.18.06a.44.44,0,0,1-.11.08c-.13.06-.26.15-.4.2a5.89,5.89,0,0,1-.58.24.08.08,0,0,1-.09,0,.07.07,0,0,1,0-.1,5.11,5.11,0,0,1,.64-.27,2.28,2.28,0,0,0,.36-.15.53.53,0,0,1,.12,0l.14-.09.38-.18.28-.15a13.06,13.06,0,0,1-2.63-.33.43.43,0,0,1-.29-.16.89.89,0,0,1-.12-.4c0-.22-.06-.44-.08-.67l-1.05.35a6.42,6.42,0,0,0-1.59,1.09,2.63,2.63,0,0,0-.29.37,2.69,2.69,0,0,0-.19.38s-.06.06-.09,0a.07.07,0,0,1,0-.1A3.38,3.38,0,0,1,30.52,19c-2,.73-4,1.54-6.05,2.26-.71.26-1.44.5-2.15.72-1.29.39-2.59.76-3.85,1.22l-5.09,1.88-1.72.64c-.31.12-.61.24-.93.33l-.56.15-.11,0,1.53.82c1.29.71,2.58,1.45,3.86,2.18h0C15.77,29.13,16.07,29,16.37,28.91Zm33-1.69c0-.28,0-.56,0-.84l-.43.17,0,0,0-.05.45-.18v-.22l-.72-.56a.06.06,0,0,1,0-.09.06.06,0,0,1,.08,0c.21.18.43.35.64.51,0-.35,0-.7,0-1.05l-1.16.45-2.07.8a22.49,22.49,0,0,0,3.13,2.55C49.35,28.2,49.37,27.71,49.38,27.22ZM64,26.83c-.5-.29-1-.61-1.49-.93-.89-.59-1.77-1.17-2.65-1.78l-2.67-1.85a0,0,0,0,1,.05-.07c.56.39,1.13.77,1.7,1.15,1.17.79,2.34,1.58,3.55,2.32.35.21.69.43,1,.63l.54.3a23.48,23.48,0,0,0,2.48,1.31.11.11,0,0,1-.09.19C65.59,27.72,64.76,27.28,64,26.83Zm-8.88-.37,0-.61-3-2-1.26.49c.4.34.82.67,1.24,1,1,.75,2,1.48,3,2.18C55.06,27.17,55.07,26.82,55.08,26.46Zm-7.61.68,0,0,0,0c.13,0,.31-.18.45-.15C47.83,27.06,47.6,27.09,47.47,27.14Zm1.15-2.88-.13-.07c-1.51.6-3,1.23-4.52,1.86Zm-38.5,1.5c.33-.15.66-.32,1-.44.62-.22,1.24-.48,1.85-.72l3.54-1.42c.54-.22,1.1-.41,1.65-.61s1.12-.41,1.69-.59l.65-.21,1.23-.37c.58-.17,1.15-.36,1.72-.55s1.31-.47,2-.71c1.65-.61,3.29-1.25,4.93-1.87.69-.25,1.39-.49,2.09-.72v-.12c-.85.09-1.7.15-2.56.2a29.42,29.42,0,0,1-3,0c-.49,0-1-.07-1.46-.12a6.76,6.76,0,0,1-.9-.15,2.8,2.8,0,0,1-1.73-.85l-.92.15-2.31.38,0,0,0,0c1.07-.18,2.14-.36,3.22-.51h0a4.1,4.1,0,0,1-.62-1.34,3.38,3.38,0,0,1-.26-.33,2.14,2.14,0,0,1-.17-.3.31.31,0,0,1-.13,0l-.22,0-.45.08a28.09,28.09,0,0,0-3.55,1.12l-.75.27-.84.41c-1.41.69-2.8,1.37-4.25,2-.41.17-.84.31-1.26.46l-.81.28c-.58.2-1.15.42-1.73.63-.31.11-.61.23-.92.36-.47.19-.94.39-1.39.62l-.66.35a9.08,9.08,0,0,0-1.06.68c-.25.19-.5.35-.74.56a4.12,4.12,0,0,0-.49.54L2.7,23a4.75,4.75,0,0,1,.49.17,7.41,7.41,0,0,1,.86.4c.65.22,1.29.5,1.92.76s1.33.58,2,.89c.47.22.94.45,1.4.69a.33.33,0,0,1,.15,0,.4.4,0,0,1,.21.07Zm45-1c0-.24,0-.47,0-.71l-1.22.49,0,0,0,0L55.14,24c0-.22,0-.45,0-.67L54.73,23a.08.08,0,0,1,0-.11.07.07,0,0,1,.11,0l.26.2c0-.13,0-.25,0-.38l-2.77,1.08,2.84,1.83Zm-5.66-1v0l-.11,0,.11.07Zm.1-.2a.26.26,0,0,1,.17-.05h0c2.15-.87,2.9-1.16,3.66-1.45l1.06-.58c-.74-.41-1.48-.82-2.23-1.19-.28-.14-.56-.3-.84-.45-.46-.25-.94-.49-1.41-.72-1.14-.57-2.29-1.11-3.45-1.65.44.31.88.61,1.34.9s1.16.8,1.73,1.21a.09.09,0,0,1,0,.13.09.09,0,0,1-.13,0c-.53-.39-1.07-.76-1.62-1.13-.72-.48-1.44-1-2.14-1.49l-.53-.24a.23.23,0,0,1-.13-.17h0l-.25,0a2.16,2.16,0,0,1-.1.92l-.11.22c1,.72,2,1.39,3,2,.72.43,1.41.9,2.13,1.33l-.32-.14-.64-.28c-.41-.19-.81-.4-1.2-.62L47.24,20l-1-.67c-.59-.38-1.17-.8-1.73-1.23a2.47,2.47,0,0,1-.41.34,3.42,3.42,0,0,1-.46.26l-.08,0c.92.68,1.88,1.3,2.85,1.89.34.21.66.44,1,.65a.09.09,0,0,1,0,.13.08.08,0,0,1-.12,0c-.33-.17-.65-.34-1-.53s-.7-.43-1-.65c-.7-.44-1.36-.91-2-1.4-.28.11-.56.22-.84.31l1.78,1.21c.5.35,1,.71,1.47,1.07a.08.08,0,0,1,0,.09.07.07,0,0,1-.09,0c-1.19-.71-2.31-1.5-3.43-2.31l-.19.05s0,0,0,.06a.38.38,0,0,1-.18.49l.36.23c.14.1.3.19.44.3l.36.27.12.08c.3.14.61.27.91.39l1.81.81c.55.25,1.1.51,1.63.79s1.19.64,1.77,1l0,0Zm1.9-.47,1.08-.57-2.64,1,.12.09Zm21.35-.52V22c-.36-.18-.72-.38-1.07-.58-1.24-.7-2.47-1.41-3.63-2.22-.4-.28-.79-.6-1.16-.9l-.12-.09-1.77.64q.45.36.93.69c1.15.79,2.34,1.47,3.55,2.17l2,1.12,1.27.74C72.85,23.25,72.84,22.94,72.84,22.62Zm-19.48-.21L55,21.79l0,0-.09-.05-1.39.53-.32.12-.57.3-.46.25Zm1.32-.78-.1-.06-.57.32Zm18.14-.69c0-.38,0-.76,0-1.15v-.46c0-.32,0-.63-.07-.95l-1.69-1.12a.11.11,0,1,1,.12-.18l1.54,1,0-.34c0-.57-.11-1.13-.17-1.69a.31.31,0,0,1,.1-.26s0,0,0-.06-.08-.32-.13-.47a.14.14,0,0,0,0-.06.35.35,0,0,1-.2-.59c-1.36-.45-2.71-1-4-1.48-2-.75-3.88-1.55-5.8-2.38a.36.36,0,0,1-.2.11,11.48,11.48,0,0,0-2.09.55l-.52.17c.27.1.53.21.79.33-.3-.08-.6-.18-.9-.29l-.78.29-1.51.58c-1.6.64-3.24,1.25-4.81,2l-.57.23a3.09,3.09,0,0,1-.91.78,5.47,5.47,0,0,1-.69.33c-.26.11-.55.18-.81.27l-.78.19-.8.15h-.08l.44.38c.16.13.34.29.51.41s.3.22.45.33a6.21,6.21,0,0,0,.89.54.06.06,0,0,1,0,.09.06.06,0,0,1-.09,0,8.89,8.89,0,0,1-2.48-1.74h0l-1.13.15-.54.06c1.43.64,2.87,1.25,4.3,1.87L51.2,19c.52.23,1,.46,1.54.71l1.36.7c.39.22.78.44,1.18.65L58,19.55a0,0,0,0,1,.06,0,0,0,0,0,1,0,.06l-1.91,1.1-.77.43a.42.42,0,0,1,.11.18q2.88-1.08,5.77-2.1c1.39-.49,2.78-1,4.18-1.43l.75-.23.06,0,0,0a0,0,0,0,1,.06,0c.94-.38,1.85-.68,2.75-1s1.66-.52,2.49-.77a.43.43,0,0,1,.53.29.42.42,0,0,1-.28.53c-1,.29-1.89.58-2.83.89A44.92,44.92,0,0,0,72.73,20a.14.14,0,0,1,0,.18.14.14,0,0,1-.19,0c-.54-.31-1.08-.66-1.59-1-.78-.54-1.56-1.08-2.32-1.64l-1.57.53c.44.35.9.67,1.38,1l.89.58c.59.38,1.21.72,1.81,1.08.41.23.83.45,1.23.7.14.08.28.16.41.25C72.83,21.45,72.82,21.19,72.82,20.94Zm-14.67-.39,1.74-.68.55-.22-.32.12q-2.32.82-4.64,1.7a.33.33,0,0,1,0,.13ZM41.65,20,41.57,20l-.31.13.81.26.18.06Zm-1.31-.39-1.24.15.36.2Zm-3.07-.6L37.4,19h0a5.29,5.29,0,0,1-1-.65h0a1.81,1.81,0,0,1-.35.74Zm1.89-.15.6-.07c-.45-.3-.89-.6-1.34-.92A12.46,12.46,0,0,1,37.34,17c-.23-.21-.44-.42-.65-.63l-.09-.05-.27-.15a2,2,0,0,1,.13.43,3.59,3.59,0,0,1,.1,1,5.21,5.21,0,0,1-.09.59l.19.14c.29.2.59.39.89.57l.14-.06.27-.08.33-.13a.08.08,0,0,1,.09.05.08.08,0,0,1-.05.09l-.3.1-.25.11-.05,0C38.21,19,38.69,19,39.16,18.9Zm-5.42,0h0a.46.46,0,0,1,.54-.18,1.09,1.09,0,0,0,.76.07c-.08-.05-.15-.12-.23-.18l-.56-.37-.53-.33a.38.38,0,0,1-.15.09l-.31.09c0,.07,0,.13,0,.2l.09.54Zm7.48-.32-.9-.7-.15,0-.63-.15c-.19-.05-.36-.12-.55-.18a10.36,10.36,0,0,1-1-.41L37.7,17l-.57-.29a16.35,16.35,0,0,0,2.37,1.76c.19.13.39.24.58.36C40.45,18.72,40.84,18.66,41.22,18.57Zm-5.7-.29a2,2,0,0,0,.16-.58v0a6,6,0,0,1-.65-.76.05.05,0,0,1,0-.08,0,0,0,0,1,.07,0c.1.12.19.27.3.38a3.2,3.2,0,0,0,.25.27,1.86,1.86,0,0,0-.07-.85,2.14,2.14,0,0,0-.09-.27s0-.1-.08-.14l-.06-.1a1,1,0,0,0-.34-.38l-.1,0-.14,0a1.13,1.13,0,0,0-.72.12l-.23.12a.34.34,0,0,1-.17.05l.06.09a3.23,3.23,0,0,0,.25.29l.13.17,0,0a.27.27,0,0,1,.33.18.24.24,0,0,1-.05.23,4.57,4.57,0,0,0,.81.67l.32.22a.05.05,0,0,1,0,.08.06.06,0,0,1-.08,0,6.39,6.39,0,0,1-.78-.59.06.06,0,0,1,0,.07.08.08,0,0,1-.11,0L34.32,17h0l-.43.12a1.58,1.58,0,0,1-.23.22.34.34,0,0,1,.13.18.33.33,0,0,1,0,.17,3.79,3.79,0,0,0,.34.2c.16.1.32.21.49.3s.39.26.58.39a.08.08,0,0,1,0,.07A1.09,1.09,0,0,0,35.52,18.28Zm6.9,0L42,17.87l-.3,0a5.9,5.9,0,0,1-1,0l.81.61A9.5,9.5,0,0,0,42.42,18.24Zm.8-.33c.14-.07.26-.16.39-.24l.14-.11-.2-.16-.14.05-.44.14-.37.13-.31.09.19.15.22.18A4.83,4.83,0,0,0,43.22,17.91Zm-1.35-.14-.18-.16a22.93,22.93,0,0,1-1.94-1.88l-.53-.6a.11.11,0,0,1,0-.16.12.12,0,0,1,.17,0,26.53,26.53,0,0,0,2.78,2.73l.29-.07a2.83,2.83,0,0,0,.5-.13,4.94,4.94,0,0,0,.49-.19,32.82,32.82,0,0,1-2.68-2.46.12.12,0,0,1,0-.17h.16c.4.42.83.82,1.25,1.21.23.22.47.43.71.64a.5.5,0,0,1,.38-.56l.39-.07h0l-.09-.17-.23-.28-.21-.24a1.49,1.49,0,0,0-.12-.14A4.47,4.47,0,0,0,42,14.25a3.38,3.38,0,0,0-1.64-.39c-.21.14-.43.28-.63.43a.43.43,0,0,1-.59-.12A.45.45,0,0,1,39,14l-.71.13a36.7,36.7,0,0,1-3.74.69.43.43,0,0,1-.38-.14l-.1,0,.22.11.25.15A1,1,0,0,1,35,15a1.81,1.81,0,0,1,1.27,1l.18.11c-.1-.1-.19-.21-.29-.32a.08.08,0,0,1,0-.1.07.07,0,0,1,.1,0c.18.21.36.43.56.63.36.2.71.38,1.08.56a9.61,9.61,0,0,0,2.25.81h.05A22.41,22.41,0,0,1,37,14.68a.07.07,0,0,1,0-.1.08.08,0,0,1,.1,0,21.8,21.8,0,0,0,3,2.9l.37.29.44,0h.4A2.48,2.48,0,0,0,41.87,17.77Zm2-.52-.1,0,.08.06A.44.44,0,0,1,43.9,17.25Zm-10.39,0,0,0-.06,0-.06,0h.08Zm10.29-.07.11-.05a.49.49,0,0,0,0-.12s0-.08,0-.12l-.27,0-.15,0h-.1l.31.25Zm-14.12-.3-.17-.07h-.65l-.45,0a9,9,0,0,1-1.71-.29c-.14,0-.28-.1-.42-.15a.07.07,0,0,1-.05-.09.08.08,0,0,1,.1-.05l.33.1.55.14.26,0a8.21,8.21,0,0,0,1.21.18l.56.05a4.62,4.62,0,0,1-1.47-1L26.34,16l0,0,0,0,1.4-.22a3.46,3.46,0,0,1-.62-.92,2.92,2.92,0,0,1-.2-1.2.59.59,0,0,1,.24-.55l.27-.16a2.14,2.14,0,0,1,.27-.09,3.42,3.42,0,0,1,1.37-.06l-.67-.23-.61-.18a2.94,2.94,0,0,0-.62.07,4.73,4.73,0,0,0-.88.28l-.45.24a.07.07,0,0,1-.1,0,.07.07,0,0,1,0-.09,4.55,4.55,0,0,1,1-.44c.21-.05.43-.11.65-.14L27,12.09l-.78-.16-1.36.37a.06.06,0,0,1-.08-.05.07.07,0,0,1,0-.08l1.06-.29-.25,0a5.48,5.48,0,0,0-.57-.05h-.34c-.22,0-.43,0-.66,0a2.62,2.62,0,0,0-.67.16,1.41,1.41,0,0,0-.42.26,1.05,1.05,0,0,0-.35.61l.49-.13-.5.14a3.36,3.36,0,0,0,.18,1.59c.05.15.09.3.13.45a3,3,0,0,0,.5,1.1l.29.24.15.06.3,0-.27.06.41.15c.22.06.44.1.64.14a18.53,18.53,0,0,0,2,.21c.68,0,1.39.06,2.07.05ZM32,16.69h.49a1.55,1.55,0,0,1,0-.21,7.79,7.79,0,0,1-1.65-1.25l-.53.09c.19.17.38.34.58.5s.28.22.42.32a5,5,0,0,0,.45.3.09.09,0,0,1,0,.12.11.11,0,0,1-.13,0,7.42,7.42,0,0,1-.86-.61l-.69-.6,0,0-1.26.2a4.82,4.82,0,0,0,.91.45,4.5,4.5,0,0,0,1.3.32.42.42,0,0,1,.36.38Zm1.29-.06a4.06,4.06,0,0,0,.69-.08v0l-.06-.07c0-.07-.11-.15-.15-.22a.88.88,0,0,0-.06-.1l-.07-.07a1,1,0,0,1-.13-.15.43.43,0,0,1-.11-.12.42.42,0,0,1,0-.1h0s0,.06,0,.09a5,5,0,0,0-.08.77v.08Zm-.4-1.4L32.56,15l-1.38.22a10,10,0,0,0,.83.66c.17.13.37.27.56.39A8.24,8.24,0,0,1,32.88,15.23Zm39.89.52-.06-.6,0,0a.31.31,0,0,1-.13.06s0,0,0,0,.09.32.14.49Zm-27-.74,0,0a.09.09,0,0,1,.11-.15l.08.06a3.73,3.73,0,0,0,.36-.32l0,0-.36-.3c-.48-.4-.94-.84-1.41-1.26l-.14-.13h-.08a9,9,0,0,0-1,.27,14.35,14.35,0,0,0,1.15.91l.74.54c.12.09.23.19.36.28a.12.12,0,1,1-.15.19L45,14.76c-.17-.14-.36-.27-.54-.41s-.62-.45-.9-.7L43,13.2l-.47.14.48.4c.3.24.59.48.91.71.15.11.3.19.46.29a3.54,3.54,0,0,0,.33.19.19.19,0,1,1-.18.33l-.3-.17a.64.64,0,0,0,.1.13,1.84,1.84,0,0,1,.23.42A8,8,0,0,0,45.75,15Zm2.24.36A9,9,0,0,0,49.52,15a4.79,4.79,0,0,0,.59-.23l.25-.13a1.71,1.71,0,0,0,.42-.28,1.6,1.6,0,0,0,.25-.27.06.06,0,0,1,0,0s0,0,0,0c.33-.64-.24-1.38-.68-1.91l-.17-.21-.13-.12a.26.26,0,0,1-.1.13.28.28,0,0,1-.39-.08l-.2-.2-.18-.15c-.09-.09-.22-.17-.3-.26l-.12-.08L48.53,11l-.16-.05-.11,0-.32-.06.23.28a.08.08,0,0,1,0,.1.07.07,0,0,1-.1,0c-.1-.12-.19-.26-.3-.38a2.71,2.71,0,0,0-.49,0l-.24.06-.55.19a17.55,17.55,0,0,0-1.78.91l-.06,0a4,4,0,0,1,1.29,0,2.83,2.83,0,0,1,1,.39,1.38,1.38,0,0,1,.36.26,1.61,1.61,0,0,1,.16.38,2,2,0,0,1-.17,1.73c.17-.18.33-.37.48-.56a.08.08,0,0,1,.1,0,.08.08,0,0,1,0,.11,6.73,6.73,0,0,1-.6.72c-.15.16-.33.3-.49.45l0,0,0,0C47.15,15.51,47.57,15.45,48,15.37ZM30.07,15.3c-.23-.21-.45-.44-.66-.67s-.48-.49-.69-.74a.09.09,0,0,1,0-.13.08.08,0,0,1,.12,0c.17.21.38.41.56.62s.58.6.89.88l.53-.09-.09-.08c-.42-.43-.82-.87-1.21-1.32l-.2-.24a3.4,3.4,0,0,0-1.42,0l-.13,0-.05,0v.05a2.16,2.16,0,0,0,1.07,1.85Zm3.43,0a2.66,2.66,0,0,1,.83-.35L34,14.71l-.34.06h0a.24.24,0,0,1,0,.32.29.29,0,0,1-.14.08l-.06.24A.22.22,0,0,1,33.5,15.33Zm-1-.43c-.26-.23-.51-.48-.43-.48h0a5.58,5.58,0,0,0-.66-.3c-.28-.11-.58-.2-.88-.29s-.5-.15-.75-.2l-.14,0,.06.07.54.59.37.38c.16.17.34.33.52.49ZM33,15h0l-.07,0h0A1,1,0,0,1,33,15S33,15,33,15Zm.89-.29-.08-.05-.1-.06-.07.16Zm.25,0a.48.48,0,0,1-.08-.22.46.46,0,0,1,.37-.5.35.35,0,0,1-.19-.1.71.71,0,0,0-.12.13c-.06.08-.13.16-.18.24a1.69,1.69,0,0,0-.19.32l.26.15Zm-.82-.3L32.8,14c-.13-.06-.24-.14-.36-.21l-.33-.18,0,0a.11.11,0,0,1,0,.06,7.85,7.85,0,0,1,1.11.68Zm13.19-.06a1.12,1.12,0,0,0,.13-.39s0-.07,0-.09v-.09a.94.94,0,0,0,0-.3l-.06-.17h0a2,2,0,0,0-.49-.27l-.11,0-.13,0-.19,0-.11,0-.29,0a2.31,2.31,0,0,0-.58,0l.1.08c.37.33.74.66,1.12,1l.5.4.12.09A.41.41,0,0,1,46.51,14.26Zm-12.85-.44a12.78,12.78,0,0,1-1.51-1.22,11.68,11.68,0,0,1-1-1,19.37,19.37,0,0,1-1.81-2.23.09.09,0,0,1,0-.13.09.09,0,0,1,.13,0,17.14,17.14,0,0,0,3.92,4.05c.14.11.29.2.43.29h0l.24-.24h0l0-.18h0c-.25-.15-.51-.31-.75-.48a25.83,25.83,0,0,1-3.9-3.78.11.11,0,1,1,.16-.15c.6.66,1.21,1.34,1.85,2A13.54,13.54,0,0,0,34,12.84c0-.2-.05-.41-.09-.61a.13.13,0,0,1-.08,0,17.94,17.94,0,0,1-2-1.83l-.08,0a.08.08,0,0,1-.09,0,.08.08,0,0,1,.05-.09h0l-.39-.42L30.05,8.4a.09.09,0,0,1,.14-.12L31.6,9.8c.13.14.25.28.38.41l1.23-.34-.09-.18-.23-.22-.82-.76A8.81,8.81,0,0,1,31.41,8,4.3,4.3,0,0,1,31,7.43a.14.14,0,0,1,0-.14l-.2-.16c-.34-.25-.69-.48-1-.69l-.11-.05v.08c0,.07,0,.14,0,.21s0,.2,0,.31,0,.35,0,.52,0,.16,0,.24a.06.06,0,0,1-.06.08.1.1,0,0,1-.09-.07,4,4,0,0,1-.06-.91,1.21,1.21,0,0,1,0-.19,1.48,1.48,0,0,0,0-.21s0-.07,0-.1a.78.78,0,0,0-.21-.09l-.27-.06a.93.93,0,0,0-.24,0h-.09s0,0,0,.05l-.16.17a2.53,2.53,0,0,0-.38,1.4,3.32,3.32,0,0,0,.15.75,7.34,7.34,0,0,0,1.34,2.14l.16.18.42-.1-.4.13q.43.51.9,1l.54.58L31,12.06a.07.07,0,0,1,0-.09.07.07,0,0,1,.1,0c.16.34.37.66.56,1l0,0a.38.38,0,0,1,.15.18.24.24,0,0,1,0,.09v.06l0,0,.87.47.55.36C33.45,14.1,33.56,14,33.66,13.82ZM52.11,14c.55-.25,1.11-.48,1.66-.74,1.22-.57,2.45-1.09,3.7-1.58l1-.38-.06,0c-.43-.17-.86-.37-1.29-.56v0h0c.35.16.74.31,1.1.44l.36.14c.41-.16.84-.31,1.25-.45s.91-.31,1.35-.41l.15,0c-.82-.36-1.64-.73-2.45-1.12l-1.8-.87-.39.1c-.34.09-.68.2-1,.3L54,9.21l.37.2a3,3,0,0,1-.45-.18l-.36.11-.93.27c-.31.09-.61.19-.92.26-.66.14-1.31.25-2,.36a3.76,3.76,0,0,1,.46.32l.38.33c.11.1.21.22.33.33a6.33,6.33,0,0,1,.78,1,3,3,0,0,1,.4.92,2.12,2.12,0,0,1,0,.56.35.35,0,0,1-.06.26Zm-16.89-.14L35,13.57c0-.07-.09-.14-.14-.2l0,.1a.4.4,0,0,1-.23.4Zm.25,0,0,0a.15.15,0,0,1,0-.08v-.55c0-.37,0-.74,0-1.11l.07-1.77V9.37L34,9.78v.05a4.72,4.72,0,0,1,.27.61,6.6,6.6,0,0,1,.2.63c.08.36.17.7.23,1.06s.09.64.13.95a4.38,4.38,0,0,0,.37.58l.11.13Zm-3.61-.2v0l0,0Zm4.93-.06.57-.13a.45.45,0,0,1-.24-.15.46.46,0,0,1,.07-.63c.3-.25.62-.5.92-.76l.29-.26a6.11,6.11,0,0,1-1.1-1l-.24.86c-.11.45-.23.89-.33,1.34-.06.25-.12.52-.19.78ZM39.48,13l.12-.34c0-.15.1-.31.16-.47l.34-1c-.16.16-.31.31-.48.46-.59.57-1.23,1.09-1.86,1.61A16.72,16.72,0,0,1,39.48,13Zm.34,0,.47-.4.8-.74.41-.37c.24-.2.53-.37.78-.58a6.77,6.77,0,0,1,.6-.49,6.89,6.89,0,0,1,1-.53,6.13,6.13,0,0,0,.54-.9,4.6,4.6,0,0,0,.37-1l.08-.41h-.14a.28.28,0,0,1-.32-.25A.28.28,0,0,1,44.61,7L45,7V7l0-.42a2.17,2.17,0,0,0,0-.26l-.62.22a.07.07,0,0,1-.09,0,.08.08,0,0,1,.05-.09l.6-.23s0,0,0,0,0-.17-.07-.25a3.93,3.93,0,0,0-.24-.56A3.3,3.3,0,0,0,44.41,5l-.27-.4a4.09,4.09,0,0,0-.33-.38,1.53,1.53,0,0,0-.3-.25l-.18-.1-1-.48a6,6,0,0,0-1.26-.23,5.06,5.06,0,0,0-.87,0q.13.17.27.3v0h0l-.29-.33H40a6.76,6.76,0,0,0-1.46.33l-.31.19-.51.42-.13.14a1.92,1.92,0,0,0-.13.17,4.27,4.27,0,0,0-.5,1c-.07.19-.13.38-.19.57.1-.15.2-.29.31-.43a7.34,7.34,0,0,1,1-.94.08.08,0,0,1,.1,0,.07.07,0,0,1,0,.1,4.72,4.72,0,0,0-1.52,1.84c-.06.28-.11.56-.16.83s0,.31-.07.46c0,.33-.08.65-.11,1V9h0l.89-.26a10.82,10.82,0,0,1,.53-1.44s0,0,0,0a0,0,0,0,1,0,0c.15-.43.18-.48.2-.54s.13-.26.2-.39a4.54,4.54,0,0,1,.36-.6c.54-.79,1.29-1.55,2.34-1.27a2.19,2.19,0,0,1,.71.33,5,5,0,0,1,.74.71,1.14,1.14,0,0,1,.21.28,1.2,1.2,0,0,1,0,.38,5.23,5.23,0,0,1,0,.79s0,.1,0,.16l.66-.22-.66.24c0,.12-.05.24-.07.34a7.51,7.51,0,0,1-1.8,3.23l-.33.36c-.17.48-.35,1-.5,1.43l-.16.51h.22Zm.37,0,.43-.29.47-.31a.56.56,0,0,1,0-.12.32.32,0,0,1,.35-.16,10.3,10.3,0,0,0,2.14-1.91c-.25.13-.49.28-.72.43a6.33,6.33,0,0,0-.95.68c-.6.59-1.25,1.12-1.88,1.67l0,0Zm22.53-.18,0,0h0c.09,0,.21,0,.28.1C62.91,12.88,62.81,12.79,62.72,12.76Zm-26.29-1c.12-.56.25-1.12.41-1.67h0a.14.14,0,0,1,0-.2l0,0L37,9.5c.06-.21.12-.43.19-.64l-.86.26-.05.66v.73c0,.57,0,1.15,0,1.72,0,.14,0,.29,0,.44C36.28,12.35,36.36,12,36.43,11.72ZM29.72,12l0,0h0Zm3.83-1.35c-.09-.22-.18-.46-.28-.68l-1.18.33A19.15,19.15,0,0,0,33.9,12,7.22,7.22,0,0,0,33.55,10.68Zm-4.64.5-.91.26c.46.13.92.28,1.37.44l.05,0Zm14.78.27,1.11-.63.81-.39a3.36,3.36,0,0,1,.61-.19l.49-.22a3.22,3.22,0,0,0-.84-.3l-.2,0h-.2a4.52,4.52,0,0,0-.52,0h0a4.92,4.92,0,0,1-.26.43,8.26,8.26,0,0,1-1.39,1.56ZM28.86,11.1l-.28-.4a.36.36,0,0,1-.25.38,3.34,3.34,0,0,0-.4.1l-.37.14.12,0,.1,0Zm10.06,0,.38-.36c-.27-.27-.55-.57-.79-.86S38,9.34,37.79,9c-.14.41-.27.82-.4,1.23l.5.52c.14.13.29.25.44.37a2.32,2.32,0,0,0,.3.22Zm2-2.28c0-.09,0-.2,0-.29L41,8.06c-.12-.11-.24-.21-.35-.33L39.88,8l.06.07a2.5,2.5,0,0,0,.66.75.11.11,0,0,1,0,.14.1.1,0,0,1-.14,0,1.63,1.63,0,0,1-.31-.27c-.1-.13-.21-.25-.31-.39s-.12-.18-.18-.27l-.89.29a4.62,4.62,0,0,0,1,.94.12.12,0,0,1,0,.18.13.13,0,0,1-.18,0c-.09-.08-.19-.15-.28-.24L39.11,9a4.6,4.6,0,0,1-.45-.54l-.07-.08-.64.2-.09.24a12.92,12.92,0,0,0,.9,1.06c.22.24.44.49.67.72A9.7,9.7,0,0,0,40.88,8.84Zm15.53,1.52v0h0s.14,0,.16.09S56.45,10.38,56.41,10.36ZM48,9.74a3.14,3.14,0,0,1,.92.12l.19.07c.49-.1,1-.23,1.46-.38s.84-.31,1.26-.43L53,8.79l-1-.53v0h0l1.11.53,2-.66,1-.3,0,0-1.6-.88c-.59-.32-1.16-.66-1.73-1l0,0s0,.06,0,.06a.33.33,0,0,1-.14,0l-.63-.05a1,1,0,0,1-.17,0c-.25,0-.53,0-.78,0h-.4a.8.8,0,0,1-.16.08c-.45.21-.93.39-1.39.57l-.15.06c.21.11.41.22.61.35a6.36,6.36,0,0,1-.71-.31,18.6,18.6,0,0,1-3,.83c0,.09,0,.18,0,.27a3.43,3.43,0,0,1-.11.46,6.78,6.78,0,0,1-.47,1.23L45,9.53a1.83,1.83,0,0,1,.33,0h.25a2.32,2.32,0,0,1,.38.06l.23.06a3.49,3.49,0,0,1,.69.31A3.59,3.59,0,0,1,48,9.74ZM35.44,9.23c0-.49,0-1,0-1.48,0-.2,0-.4,0-.6h0a.23.23,0,0,1-.21-.23,4.48,4.48,0,0,1,.1-.81A8.81,8.81,0,0,0,35,5.19c-.06-.19-.12-.4-.19-.58l-.06-.14s0-.11-.07-.15l-.07-.12h0a1.42,1.42,0,0,0-.18-.08l-.12,0h-.14a2.59,2.59,0,0,0-.87.17l-.9.3-.61.15L31,5l-.61.25c-.21.09-.46.2-.68.32l0,.26a.06.06,0,0,1,0,0l.32.12.27.13a9.22,9.22,0,0,1,1.19.66,7,7,0,0,1,2.36,2.59.77.77,0,0,1,0-.15c0-.17,0-.34,0-.5a.06.06,0,0,1,.06-.08.08.08,0,0,1,.09.06c0,.14,0,.28.05.42s0,.38.07.57ZM61,9.13a3.5,3.5,0,0,1-.74-.27l.23.1,1.1.48ZM32.2,8.39a6.05,6.05,0,0,0-.63-.61,9.45,9.45,0,0,0,.93,1C32.4,8.63,32.31,8.51,32.2,8.39Zm9-.19-.07,0s0,.09,0,.14,0,.16,0,.24A1.64,1.64,0,0,0,41.2,8.2Zm-2.68.12L38.24,8l-.19.51ZM39.62,8a3.76,3.76,0,0,0-.25-.31,1.79,1.79,0,0,0-.25-.23S39,7.4,39,7.37a.1.1,0,0,1,0-.14.11.11,0,0,1,.14,0,2.28,2.28,0,0,1,.72.73l.79-.25a11.86,11.86,0,0,1-1.09-1.42c-.06-.1-.14-.21-.21-.31l-.16.21a3.86,3.86,0,0,0-.31.51c-.18.33-.35.67-.54,1.11l.4.49Zm1.89-.54-.27.1,0,.21.16.12C41.42,7.73,41.47,7.59,41.51,7.44Zm-.41.14,0,0s0,0,0,0S41.1,7.6,41.1,7.58Zm0-.06v0A6.31,6.31,0,0,0,41,5.55a1.21,1.21,0,0,0-.05-.18l-.13-.07-.09,0-.14,0h-.15a.86.86,0,0,0-.16,0,1.39,1.39,0,0,0-.67.39l-.1.1c.29.39.58.79.89,1.15s.39.48.6.69Zm.43-.13a4.35,4.35,0,0,0,.17-1.08V6.07l-.17-.2a4,4,0,0,0-.29-.29l-.08-.06a3.89,3.89,0,0,1,.09.47,5.72,5.72,0,0,1,0,1.49ZM36,6l.08-.37a5.59,5.59,0,0,1,.26-.72,3.2,3.2,0,0,0-.43.61l.06.26Zm17.08-.56.34.18.44.13Zm-23.49.16a.41.41,0,0,0-.11.07.57.57,0,0,0-.13.08l.22,0C29.58,5.72,29.58,5.65,29.59,5.59Zm18-.41a.07.07,0,0,1,0-.09L47.81,5a1.19,1.19,0,0,1,.32,0,1.2,1.2,0,0,1-.44.25A.06.06,0,0,1,47.61,5.18ZM31.32,4.06l.14,0h0a.29.29,0,0,0-.1,0l-.12-.05-.29.2-.25.17Zm.48-.14a8.91,8.91,0,0,0,.92-.27l.49-.16a1.23,1.23,0,0,1,.68-.1l0,0L33.7,3.3a1.42,1.42,0,0,0-.38-.08,2.62,2.62,0,0,0-1.17.22c-.14.07-.31.13-.45.21l-.31.18.25.12A.9.9,0,0,0,31.8,3.92Zm-1.57-.26h0l0,0Z" transform="translate(-0.53 -1.6)" style="fill-rule:evenodd"/></svg>