<svg xmlns="http://www.w3.org/2000/svg" viewBox="0 0 90 62.3"><title>rings</title><path d="M90.1,62.58a8.16,8.16,0,0,1-2.47,3.14c-.22.15,0,.51.21.36a6.68,6.68,0,0,0,2.78-3.29C90.71,62.5,90.23,62.29,90.1,62.58Z" transform="translate(-5 -18.85)" style="fill:#e2bc64"/><path d="M87.74,34.36c-8-9.42-20.67-11-31.26-6.54l-.06-.11C46.23,15.44,28,16.94,16.08,26a28,28,0,0,0-5.51,39.13c8.22,11.23,26.19,13.85,38.31,7.61a3.31,3.31,0,0,0,.72.83c.16.16.31.31.48.45a.52.52,0,0,0,.14.2C61.07,83.56,79.58,84,89,72.14,97.69,61,96.68,44.91,87.74,34.36ZM10.26,62.88a27.17,27.17,0,0,1,7.82-37.16c11.51-7.69,27.86-8.66,37.4,2.54A32.13,32.13,0,0,0,50.66,31a.59.59,0,0,0-.14-.22c-7.74-8.26-23.05-7.33-31.23,0-4.14,3.68-8.33,9.12-8.5,14.84s1.67,11.72,5.72,15.77c7.12,7.08,18.24,10.37,27.83,6.85a.19.19,0,0,0,.07.08,1.4,1.4,0,0,1,.22-.14l.79-.26-.06-.11a21.58,21.58,0,0,0,3-1.49,17.81,17.81,0,0,0,1.55-1.07l0,0a1.13,1.13,0,0,1,.21-.15l.5-.29a.58.58,0,0,0-.1-.12c7.6-6.36,10.62-18.85,4.74-27,.25-.17.48-.37.73-.53a21.2,21.2,0,0,1,3.7-1.9c6.64,11.87,1.51,29.13-10,35.89C37.32,78.36,18.12,75.34,10.26,62.88ZM49.78,31.66c-.49.37-1,.75-1.45,1.14-9.83,8.35-12.42,23.93-4.76,34.46a25.74,25.74,0,0,1-25.14-5.48c-9-8.13-8-20.76.27-29,7.75-7.69,23.13-9.72,31-1.19Zm4.78,6.53c5,8.09,2.67,19.57-4.58,25.63C45.19,55.65,47.21,44.13,54.56,38.19ZM60.47,35A21.71,21.71,0,0,1,81.91,39a19,19,0,0,1,1.38,26.77c-6.4,7.29-19.17,9.73-27.25,3.85a.51.51,0,0,0-.41-.09,3.55,3.55,0,0,1-.44-.21l-.82-.51C63.13,60.6,66.81,45.38,60.47,35ZM89.11,70.06C80.61,82.72,61.86,82.83,51,73.42a.81.81,0,0,0-.25-.12l-.56-.5c-.19-.17-.36-.37-.55-.52.42-.23.85-.45,1.24-.7a21.67,21.67,0,0,0,2.89-2.18,4.19,4.19,0,0,0,1,.8c.19.1.38.22.59.32a.3.3,0,0,0,.08.08c8.63,6.24,22.09,3.5,28.82-4.4.29-.33.55-.66.81-1a19.94,19.94,0,0,0-3.68-27.9,22.67,22.67,0,0,0-27.3,0c-7.67,5.9-10.36,18.85-4.85,27.07a17.2,17.2,0,0,1-4.17,2.35l-.35.13c-6-10-6.76-23.1,2.49-31.65,5.93-5.5,11.42-8.13,19.6-8.5,7.63-.36,14.36,2,19.45,7.83a29.69,29.69,0,0,1,6.13,28.83A27.78,27.78,0,0,1,89.11,70.06Z" transform="translate(-5 -18.85)" style="fill:#e2bc64"/><path d="M88.41,63.32a12,12,0,0,1-3.51,3.32.13.13,0,0,0-.05.07c-.07.14,0,.35.2.27a7.14,7.14,0,0,0,2.29-1.55,7.63,7.63,0,0,0,1.46-1.87A.23.23,0,0,0,88.41,63.32Z" transform="translate(-5 -18.85)" style="fill:#e2bc64"/><path d="M46.41,46.53a6.08,6.08,0,0,0-1.33,4.53c0,.2.36.19.38,0A13.43,13.43,0,0,1,45.82,49a13.84,13.84,0,0,1,1-2.14C46.9,46.59,46.6,46.31,46.41,46.53Z" transform="translate(-5 -18.85)" style="fill:#e2bc64"/><path d="M42.44,23.83a12.55,12.55,0,0,1,4,1.79c.21.14.45-.19.26-.35a8,8,0,0,0-4.19-1.79C42.29,23.47,42.26,23.78,42.44,23.83Z" transform="translate(-5 -18.85)" style="fill:#e2bc64"/><path d="M45.49,45.91a6.07,6.07,0,0,0-2,3.64c0,.24.32.25.39.05a9.56,9.56,0,0,1,1.93-3.32A.26.26,0,0,0,45.49,45.91Z" transform="translate(-5 -18.85)" style="fill:#e2bc64"/><path d="M40.6,24.61a9.87,9.87,0,0,1,4.22,1.16A.22.22,0,0,0,45,25.4a7.47,7.47,0,0,0-4.44-1.11A.16.16,0,0,0,40.6,24.61Z" transform="translate(-5 -18.85)" style="fill:#e2bc64"/><path d="M22.75,69.86a12.87,12.87,0,0,1-3.44-1.81c-.17-.13-.38.15-.22.29a10.13,10.13,0,0,0,3.53,2C22.92,70.43,23.05,70,22.75,69.86Z" transform="translate(-5 -18.85)" style="fill:#e2bc64"/><path d="M17.32,68.29c-.19-.14-.43.17-.25.32a12.4,12.4,0,0,0,4.67,2.58c.22.06.38-.26.16-.37A26.91,26.91,0,0,1,17.32,68.29Z" transform="translate(-5 -18.85)" style="fill:#e2bc64"/></svg>